<svg width="24" height="25" viewBox="0 0 24 25" fill="none" xmlns="http://www.w3.org/2000/svg">
<g clip-path="url(#clip0_23_159)">
<path d="M12 6.2251C15.79 6.2251 19.17 8.3551 20.82 11.7251C19.17 15.0951 15.79 17.2251 12 17.2251C8.21 17.2251 4.83 15.0951 3.18 11.7251C4.83 8.3551 8.21 6.2251 12 6.2251ZM12 4.2251C7 4.2251 2.73 7.3351 1 11.7251C2.73 16.1151 7 19.2251 12 19.2251C17 19.2251 21.27 16.1151 23 11.7251C21.27 7.3351 17 4.2251 12 4.2251ZM12 9.2251C13.38 9.2251 14.5 10.3451 14.5 11.7251C14.5 13.1051 13.38 14.2251 12 14.2251C10.62 14.2251 9.5 13.1051 9.5 11.7251C9.5 10.3451 10.62 9.2251 12 9.2251ZM12 7.2251C9.52 7.2251 7.5 9.2451 7.5 11.7251C7.5 14.2051 9.52 16.2251 12 16.2251C14.48 16.2251 16.5 14.2051 16.5 11.7251C16.5 9.2451 14.48 7.2251 12 7.2251Z" fill="#143E66" fill-opacity="0.5"/>
</g>
<defs>
<clipPath id="clip0_23_159">
<rect width="24" height="24" fill="white" transform="translate(0 0.225098)"/>
</clipPath>
</defs>
</svg>
